<svg width="44" height="44" viewBox="0 0 44 44" fill="none" xmlns="http://www.w3.org/2000/svg">
<g clip-path="url(#clip0_9_2624)">
<path d="M8.57404 32.6592V29.1516L14.498 32.5812L21.8249 25.7219V41.3112L8.57404 32.6592Z" fill="#0093EB"/>
<path d="M1.48242 23.3841L9.19918 16.3689L21.8265 24.1636L14.4995 31.0228L1.48242 23.3841Z" fill="#0093EB"/>
<path d="M9.1977 16.3685L0 9.35325L13.2509 2.33813L22.6045 8.57378L9.1977 16.3685Z" fill="#0093EB"/>
<path d="M35.0752 32.7371L21.8242 41.3112V25.7219L29.385 32.2694L35.0752 28.6839V32.7371Z" fill="#0093EB"/>
<path d="M29.385 30.7104L21.8242 24.1629L34.5295 16.0564L42.1683 22.6039L29.385 30.7104Z" fill="#0093EB"/>
<path d="M34.5293 16.0567L22.6035 8.57378L31.9571 2.33813L43.649 9.35325L34.5293 16.0567Z" fill="#0093EB"/>
</g>
<defs>
<clipPath id="clip0_9_2624">
<rect width="43.65" height="43.65" fill="white"/>
</clipPath>
</defs>
</svg>
