<svg width="44" height="44" viewBox="0 0 44 44" fill="none" xmlns="http://www.w3.org/2000/svg">
<g clip-path="url(#clip0_9_2634)">
<path d="M39.7634 12.9586H3.95673C3.24989 12.9586 2.67792 12.3866 2.67792 11.6798V3.83643C2.67792 1.72094 4.39885 0 6.51434 0H37.2057C39.3212 0 41.0422 1.72094 41.0422 3.83643V11.6798C41.0422 12.3866 40.4702 12.9586 39.7634 12.9586Z" fill="#E3E7EA"/>
<path d="M37.2053 0H21.8596V12.9586H39.7629C40.4697 12.9586 41.0417 12.3866 41.0417 11.6798V3.83643C41.0417 1.72094 39.3208 0 37.2053 0Z" fill="#BABAC0"/>
<path d="M2.62885 27.0252C2.62928 27.0233 2.62945 27.0224 2.62945 27.0224L0.0852995 14.9023C-0.0937338 13.7514 0.21318 12.6003 0.929399 11.7563C1.67102 10.8868 2.74514 10.4009 3.87049 10.4009H39.7795C40.9049 10.4009 41.9791 10.8868 42.7207 11.7563C43.4369 12.6004 43.7438 13.7514 43.5648 14.8511L41.0206 27.0285L43.5648 39.1485C43.7438 40.2994 43.4369 41.4504 42.7207 42.2943C41.9791 43.164 40.905 43.6499 39.7796 43.6499H3.87049C2.74514 43.6499 1.67094 43.164 0.929313 42.2943C0.21318 41.4504 -0.0937338 40.2994 0.0852995 39.1996C0.0852995 39.1996 2.58469 27.2364 2.62885 27.0252Z" fill="#4086F4"/>
<path d="M2.62945 27.0224C2.62945 27.0224 2.62928 27.0233 2.62885 27.0252H41.0213L43.5648 14.8511C43.7438 13.7514 43.4369 12.6004 42.7207 11.7563C41.9791 10.8868 40.905 10.4009 39.7796 10.4009H3.87049C2.74514 10.4009 1.67094 10.8868 0.929313 11.7563C0.21318 12.6004 -0.0937338 13.7514 0.0852995 14.9023L2.62945 27.0224Z" fill="#4175DF"/>
<path d="M9.03693 7.67285C9.74319 7.67285 10.3157 7.10031 10.3157 6.39404C10.3157 5.68778 9.74319 5.11523 9.03693 5.11523C8.33066 5.11523 7.75812 5.68778 7.75812 6.39404C7.75812 7.10031 8.33066 7.67285 9.03693 7.67285Z" fill="#FFF5F5"/>
<path d="M34.6131 7.67285C35.3194 7.67285 35.8919 7.10031 35.8919 6.39404C35.8919 5.68778 35.3194 5.11523 34.6131 5.11523C33.9068 5.11523 33.3343 5.68778 33.3343 6.39404C33.3343 7.10031 33.9068 7.67285 34.6131 7.67285Z" fill="#E3E7EA"/>
<path d="M16.7096 35.9771C14.5466 35.9771 12.6072 34.6071 11.8866 32.5665C11.6505 31.9008 11.999 31.1703 12.6659 30.9355C13.329 30.6982 14.0621 31.0491 14.2969 31.7148C14.6578 32.7338 15.628 33.4194 16.7096 33.4194C18.1195 33.4194 19.2672 32.2717 19.2672 30.8618C19.2672 29.4519 18.1195 28.3042 16.7096 28.3042H15.1198C14.4143 28.3042 13.841 27.7322 13.841 27.0254C13.841 26.3186 14.4143 25.7466 15.1198 25.7466H16.7096C18.1195 25.7466 19.2672 24.5989 19.2672 23.189C19.2672 21.779 18.1195 20.6313 16.7096 20.6313C15.628 20.6313 14.6578 21.317 14.2968 22.336C14.062 23.0029 13.3277 23.3526 12.6658 23.1153C11.999 22.8805 11.6505 22.15 11.8865 21.4843C12.6072 19.4437 14.5466 18.0737 16.7096 18.0737C19.5307 18.0737 21.8248 20.3678 21.8248 23.189C21.8248 24.715 21.1529 26.0875 20.089 27.0254C21.1529 27.9633 21.8248 29.3358 21.8248 30.8618C21.8248 33.683 19.5307 35.9771 16.7096 35.9771Z" fill="#FFF5F5"/>
<path d="M12.6658 23.1153C13.3277 23.3526 14.062 23.0029 14.2968 22.336C14.6577 21.317 15.6281 20.6313 16.7095 20.6313C18.1195 20.6313 19.2672 21.779 19.2672 23.189C19.2672 24.5989 18.1195 25.7466 16.7095 25.7466H15.1198C14.4142 25.7466 13.8411 26.3185 13.841 27.0252H20.0891C21.153 26.0873 21.8248 24.7149 21.8248 23.189C21.8248 20.3678 19.5307 18.0737 16.7095 18.0737C14.5466 18.0737 12.6071 19.4437 11.8865 21.4843C11.6505 22.15 11.9989 22.8805 12.6658 23.1153Z" fill="#E3E7EA"/>
<path d="M29.4987 35.9769C28.7919 35.9769 28.2199 35.4049 28.2199 34.6981V21.7414L26.3716 22.974C25.7821 23.3636 24.9891 23.2063 24.5982 22.6193C24.2061 22.0311 24.3647 21.2381 24.9529 20.8459L28.7893 18.2883C29.1815 18.0273 29.6872 18.0024 30.1019 18.2246C30.5178 18.447 30.7775 18.8803 30.7775 19.3524V34.6981C30.7775 35.4049 30.2056 35.9769 29.4987 35.9769Z" fill="#FFF5F5"/>
<path d="M26.3716 22.9744L28.2199 21.7418V27.0255H30.7775V19.3528C30.7775 18.8808 30.5178 18.4475 30.1019 18.2251C29.6873 18.0029 29.1815 18.0278 28.7893 18.2888L24.9529 20.8464C24.3647 21.2386 24.2061 22.0315 24.5982 22.6198C24.9892 23.2068 25.7821 23.3641 26.3716 22.9744Z" fill="#E3E7EA"/>
</g>
<defs>
<clipPath id="clip0_9_2634">
<rect width="43.65" height="43.65" fill="white"/>
</clipPath>
</defs>
</svg>
