<svg width="44" height="44" viewBox="0 0 44 44" fill="none" xmlns="http://www.w3.org/2000/svg">
<g clip-path="url(#clip0_9_2614)">
<path d="M21.7864 13.7891L12.7271 29.5022H12.7015L17.9477 35.9001L6.17579 40.8392C5.94538 40.7112 5.76624 40.5321 5.66396 40.353L0.136143 30.1164C-0.145362 29.5533 0.0850454 29.1184 0.161734 28.8624L14.9792 3.27108C15.0815 3.11753 15.235 2.96398 15.4399 2.83594H15.4655L23.066 5.19043L21.7864 13.7891Z" fill="#59C36A"/>
<path d="M43.6496 29.5024L33.3874 35.9002L30.9562 29.5024L21.786 13.7893L15.4649 2.83599C15.6439 2.70804 15.8743 2.63135 16.0791 2.63135H27.5781C27.8341 2.70804 28.3459 2.68245 28.6785 3.27113L43.496 28.8625C43.5983 29.0417 43.6496 29.272 43.6496 29.5024Z" fill="#FFDA2D"/>
<path d="M28.6797 3.27211C28.3472 2.68342 27.8353 2.70901 27.5793 2.63232H21.7872V13.7902L30.9574 29.5033L33.3886 35.9011L43.6508 29.5033C43.6508 29.2729 43.5995 29.0426 43.4972 28.8635L28.6797 3.27211Z" fill="#FDBF00"/>
<path d="M43.65 29.5024C43.65 29.7327 43.5988 29.9631 43.5221 30.1166L37.9943 40.3532C37.7894 40.6859 37.3034 41.0186 36.8682 41.0186H6.78994C6.58513 41.0186 6.3548 40.9417 6.17575 40.8394L12.7015 29.5024H43.65Z" fill="#4086F4"/>
<path d="M21.7872 41.0186H36.869C37.3042 41.0186 37.7903 40.6859 37.9951 40.3532L43.5229 30.1166C43.5996 29.9631 43.6508 29.7327 43.6508 29.5024H21.7873V41.0186H21.7872Z" fill="#4175DF"/>
</g>
<defs>
<clipPath id="clip0_9_2614">
<rect width="43.65" height="43.65" fill="white"/>
</clipPath>
</defs>
</svg>
