<svg width="44" height="44" viewBox="0 0 44 44" fill="none" xmlns="http://www.w3.org/2000/svg">
<g clip-path="url(#clip0_9_2608)">
<path d="M42.2852 9.54932H23.1883C22.4353 9.54932 21.8242 10.1604 21.8242 10.9134C21.8242 11.6663 22.4353 12.2774 23.1883 12.2774H38.3103L29.9295 18.7949L23.9194 14.9728L22.4571 17.2754L29.2775 21.6131C29.4984 21.7549 29.7549 21.8259 30.0086 21.8259C30.3032 21.8259 30.6006 21.7304 30.8461 21.5394L40.9211 13.7015V31.3743H23.1883C22.4353 31.3743 21.8242 31.9854 21.8242 32.7384C21.8242 33.4913 22.4353 34.1024 23.1883 34.1024H42.2852C43.0381 34.1024 43.6492 33.4913 43.6492 32.7384V10.9134C43.6492 10.1604 43.0381 9.54932 42.2852 9.54932Z" fill="#1976D2"/>
<path d="M24.0593 1.67885C23.7483 1.41968 23.3309 1.30783 22.9381 1.38967L1.11308 5.48186C0.466509 5.6019 0 6.16389 0 6.82137V36.8307C0 37.4855 0.466509 38.0502 1.11308 38.1703L22.9381 42.2624C23.0199 42.2788 23.1045 42.287 23.1891 42.287C23.5055 42.287 23.8138 42.1779 24.0593 41.9733C24.3731 41.7141 24.5531 41.3267 24.5531 40.9229V2.72918C24.5531 2.32269 24.3731 1.93803 24.0593 1.67885Z" fill="#2196F3"/>
<path d="M12.2773 31.3741C8.51799 31.3741 5.45703 27.7021 5.45703 23.1897C5.45703 18.6774 8.51799 15.0054 12.2773 15.0054C16.0367 15.0054 19.0977 18.6774 19.0977 23.1897C19.0977 27.7021 16.0367 31.3741 12.2773 31.3741ZM12.2773 17.7335C10.0212 17.7335 8.18516 20.1806 8.18516 23.1897C8.18516 26.1989 10.0212 28.646 12.2773 28.646C14.5335 28.646 16.3695 26.1989 16.3695 23.1897C16.3695 20.1806 14.5335 17.7335 12.2773 17.7335Z" fill="#FAFAFA"/>
</g>
<defs>
<clipPath id="clip0_9_2608">
<rect width="43.65" height="43.65" fill="white"/>
</clipPath>
</defs>
</svg>
