<svg width="44" height="44" viewBox="0 0 44 44" fill="none" xmlns="http://www.w3.org/2000/svg">
<g clip-path="url(#clip0_9_2595)">
<path d="M15.979 23.104C13.4608 23.104 11.4121 25.1527 11.4121 27.6709V39.0832C11.4121 41.6015 13.4608 43.6501 15.979 43.6501C18.4972 43.6502 20.5459 41.6015 20.5459 39.0833V27.6709C20.5459 25.1527 18.4972 23.104 15.979 23.104Z" fill="#FF4340"/>
<path d="M8.85621 23.104H4.43494C1.99702 23.104 0.0136719 25.0874 0.0136719 27.5253C0.0136719 29.9632 1.9971 31.9465 4.43494 31.9465C6.87277 31.9465 8.85621 29.9631 8.85621 27.5253V23.104Z" fill="#FF4340"/>
<path d="M0 15.9795C0 18.4977 2.04865 20.5464 4.56688 20.5464H15.9792C18.4975 20.5464 20.5462 18.4977 20.5462 15.9795C20.5462 13.4612 18.4975 11.4126 15.9793 11.4126H4.56688C2.04865 11.4125 0 13.4612 0 15.9795H0Z" fill="#36C6FF"/>
<path d="M16.1263 8.85474H20.5476V4.43348C20.5476 1.99555 18.5642 0.012207 16.1263 0.012207C13.6884 0.012207 11.7051 1.99564 11.7051 4.43348C11.7051 6.87131 13.6884 8.85474 16.1263 8.85474Z" fill="#36C6FF"/>
<path d="M27.6704 20.5462C30.1886 20.5462 32.2373 18.4975 32.2373 15.9793V4.56688C32.2374 2.04865 30.1886 0 27.6704 0C25.1522 0 23.1035 2.04865 23.1035 4.56688V15.9792C23.1035 18.4975 25.1522 20.5462 27.6704 20.5462Z" fill="#0DC46E"/>
<path d="M34.7949 20.5466H39.2162C41.6541 20.5466 43.6375 18.5632 43.6375 16.1254C43.6375 13.6874 41.654 11.7041 39.2162 11.7041C36.7784 11.7041 34.7949 13.6875 34.7949 16.1254V20.5466Z" fill="#0DC46E"/>
<path d="M43.6497 27.6709C43.6497 25.1527 41.6011 23.104 39.0828 23.104H27.6704C25.1522 23.104 23.1035 25.1527 23.1035 27.6709C23.1035 30.1891 25.1522 32.2378 27.6704 32.2378H39.0827C41.6011 32.2378 43.6497 30.1891 43.6497 27.6709Z" fill="#FDCB02"/>
<path d="M27.5248 34.7952H23.1035V39.2164C23.1035 41.6544 25.0869 43.6377 27.5248 43.6377C29.9627 43.6377 31.9461 41.6543 31.9461 39.2164C31.9461 36.7786 29.9627 34.7952 27.5248 34.7952Z" fill="#FDCB02"/>
</g>
<defs>
<clipPath id="clip0_9_2595">
<rect width="43.65" height="43.65" fill="white"/>
</clipPath>
</defs>
</svg>
