<svg width="49" height="49" viewBox="0 0 49 49" fill="none" xmlns="http://www.w3.org/2000/svg">
<g clip-path="url(#clip0_9_2445)">
<path d="M44.1633 4.59574C38.0358 -1.5318 28.0655 -1.5317 21.938 4.59574C17.7529 8.78082 16.2997 14.9499 18.1111 20.5455L0.418546 38.2382C0.150562 38.5061 0 38.8695 0 39.2484V47.3304C0 48.1195 0.639675 48.7591 1.42868 48.7591H9.51066C9.88969 48.7591 10.2529 48.6085 10.521 48.3405L12.5418 46.3197C12.8505 46.0109 13.0011 45.5781 12.9506 45.1444L12.6985 42.9747L15.7063 42.6912C16.3893 42.6269 16.9302 42.086 16.9946 41.403L17.2783 38.3948L19.4482 38.647C19.8533 38.6943 20.2588 38.566 20.5633 38.2948C20.8677 38.0238 21.0419 37.6355 21.0419 37.2279V34.5673H23.6541C24.0302 34.5673 24.391 34.419 24.6585 34.1546L28.208 30.6461C33.805 32.4603 39.9771 31.0074 44.1634 26.821C50.2908 20.6935 50.2908 10.7232 44.1633 4.59574ZM42.1429 24.8006C38.5368 28.4066 33.1276 29.5321 28.3625 27.6684C27.8366 27.4628 27.2391 27.5861 26.8377 27.9829L23.0672 31.7099H19.6131C18.8241 31.7099 18.1844 32.3496 18.1844 33.1386V35.6235L16.1579 35.388C15.7761 35.3437 15.3927 35.4549 15.0939 35.6966C14.7953 35.9384 14.6065 36.2903 14.5704 36.6729L14.2607 39.9574L10.9765 40.2669C10.5938 40.303 10.242 40.4917 10.0001 40.7904C9.75827 41.0891 9.64694 41.4726 9.69132 41.8543L10.0324 44.7879L8.91879 45.9018H2.85726V39.8404L20.7702 21.9274C21.1715 21.5261 21.2973 20.9253 21.0905 20.3968C19.2266 15.6315 20.3524 10.2225 23.9584 6.61638C28.972 1.60297 37.1294 1.60297 42.1428 6.61638C47.1562 11.6297 47.1562 19.7872 42.1429 24.8006Z" fill="#4F9CF9"/>
<path d="M40.1214 8.63669C38.4503 6.96546 35.731 6.96555 34.06 8.63669C32.3889 10.3078 32.3889 13.027 34.06 14.6981C35.731 16.3693 38.4503 16.3695 40.1214 14.6981C41.7926 13.027 41.7926 10.3078 40.1214 8.63669ZM38.101 12.6777C37.544 13.2347 36.6376 13.2348 36.0805 12.6777C35.5235 12.1207 35.5235 11.2143 36.0805 10.6572C36.6391 10.0988 37.5425 10.0988 38.101 10.6572C38.6594 11.2157 38.6593 12.1192 38.101 12.6777Z" fill="#4F9CF9"/>
</g>
<defs>
<clipPath id="clip0_9_2445">
<rect width="48.7589" height="48.7589" fill="white"/>
</clipPath>
</defs>
</svg>
