<svg width="49" height="49" viewBox="0 0 49 49" fill="none" xmlns="http://www.w3.org/2000/svg">
<path d="M22.5567 28.3211C22.1667 28.3211 21.7766 28.1725 21.4795 27.8747C20.8845 27.2796 20.8845 26.3151 21.4795 25.7201L31.3539 15.8457C31.9482 15.2507 32.9142 15.2507 33.5084 15.8457C34.1035 16.4407 34.1035 17.4052 33.5084 18.0002L23.634 27.8747C23.3369 28.1725 22.9468 28.3211 22.5567 28.3211Z" fill="#FFE492"/>
<path d="M22.5562 28.3213C22.1661 28.3213 21.7768 28.1728 21.4789 27.8749L16.5009 22.8977C15.9059 22.3027 15.9059 21.3381 16.5009 20.7431C17.0952 20.1481 18.0605 20.1481 18.6555 20.7431L23.6335 25.7204C24.2285 26.3154 24.2285 27.2799 23.6335 27.8749C23.3363 28.1728 22.9463 28.3213 22.5562 28.3213Z" fill="#FFE492"/>
<path d="M24.3781 44.1876C24.2196 44.1876 24.0588 44.1624 23.9004 44.1106C14.1608 40.8978 7.61719 31.8485 7.61719 21.5916C7.61719 20.7505 8.29981 20.0679 9.1409 20.0679C9.982 20.0679 10.6646 20.7505 10.6646 21.5916C10.6646 30.5297 16.3671 38.4165 24.855 41.2163C25.6542 41.4799 26.0884 42.3416 25.8248 43.1408C25.6138 43.7815 25.018 44.1876 24.3781 44.1876Z" fill="#FFE492"/>
<path d="M9.1409 23.1155C8.29981 23.1155 7.61719 22.4329 7.61719 21.5918V10.8123C7.61719 9.9712 8.29981 9.28857 9.1409 9.28857C9.982 9.28857 10.6646 9.9712 10.6646 10.8123V21.5918C10.6646 22.4337 9.982 23.1155 9.1409 23.1155Z" fill="#FFE492"/>
<path d="M9.14155 12.3363C8.39341 12.3363 7.74049 11.7847 7.63383 11.0221C7.51803 10.1886 8.09933 9.41913 8.93356 9.30333C14.0807 8.58794 19.0488 7.04975 23.7007 4.73141C24.4541 4.35658 25.3691 4.66208 25.744 5.41556C26.1196 6.16904 25.8125 7.08327 25.0598 7.45887C20.1116 9.92424 14.8273 11.56 9.35259 12.3218C9.28173 12.3317 9.21088 12.3363 9.14155 12.3363Z" fill="#FFE492"/>
<path d="M24.3795 44.1878C23.7403 44.1878 23.1437 43.7817 22.9327 43.141C22.6691 42.3418 23.1034 41.4802 23.9025 41.2165C32.3904 38.4175 38.0929 30.5307 38.0929 21.5918C38.0929 20.7507 38.7755 20.0681 39.6166 20.0681C40.4577 20.0681 41.1404 20.7507 41.1404 21.5918C41.1404 31.848 34.5968 40.8981 24.8564 44.1108C24.6979 44.1634 24.5379 44.1878 24.3795 44.1878Z" fill="#FFE492"/>
<path d="M39.6175 23.1155C38.7764 23.1155 38.0938 22.4329 38.0938 21.5918V10.8123C38.0938 9.9712 38.7764 9.28857 39.6175 9.28857C40.4586 9.28857 41.1412 9.9712 41.1412 10.8123V21.5918C41.1412 22.4337 40.4586 23.1155 39.6175 23.1155Z" fill="#FFE492"/>
<path d="M39.619 12.3363C39.5489 12.3363 39.478 12.3317 39.4072 12.3218C33.9325 11.56 28.6482 9.92424 23.6999 7.45887C22.9472 7.08327 22.6402 6.16904 23.0158 5.41556C23.3906 4.66208 24.3056 4.35658 25.0591 4.73141C29.711 7.04899 34.6791 8.58794 39.8262 9.30333C40.6597 9.41913 41.2417 10.1894 41.1259 11.0221C41.0208 11.7847 40.3679 12.3363 39.619 12.3363Z" fill="#FFE492"/>
</svg>
